<?xml version="1.0" standalone="no"?>
<!DOCTYPE svg PUBLIC "-//W3C//DTD SVG 20010904//EN"
 "http://www.w3.org/TR/2001/REC-SVG-20010904/DTD/svg10.dtd">
<svg version="1.0" xmlns="http://www.w3.org/2000/svg"
 width="626.000000pt" height="417.000000pt" viewBox="0 0 626.000000 417.000000"
 preserveAspectRatio="xMidYMid meet">

<g transform="translate(0.000000,417.000000) scale(0.100000,-0.100000)"
fill="#000000" stroke="none">
<path d="M0 2085 l0 -2085 3130 0 3130 0 0 2085 0 2085 -3130 0 -3130 0 0
-2085z m676 1384 c3 -5 -33 -9 -80 -9 l-86 0 0 -895 0 -895 75 0 c43 0 75 -4
75 -10 0 -6 -35 -10 -85 -10 l-85 0 0 908 c0 500 3 912 7 916 10 10 172 5 179
-5z m5064 -904 l0 -915 -75 0 c-43 0 -75 4 -75 10 0 6 30 10 70 10 l70 0 -2
893 -3 892 -72 3 c-99 4 -93 22 7 22 l80 0 0 -915z m-2437 797 c295 -153 424
-225 455 -255 35 -34 72 -102 71 -133 0 -11 -10 2 -23 31 -13 28 -36 62 -52
77 -16 15 -149 92 -294 170 l-265 143 -70 0 -70 -1 -280 -143 c-154 -79 -293
-156 -309 -170 -16 -14 -39 -48 -52 -76 -13 -27 -24 -41 -24 -31 0 33 40 104
77 136 19 17 166 96 325 176 242 121 296 144 334 144 35 0 71 -14 177 -68z
m1421 -103 c48 -38 22 -119 -39 -119 -58 0 -87 79 -43 120 28 25 48 25 82 -1z
m-3667 -11 c198 -99 197 -372 -2 -464 -197 -92 -413 92 -356 303 40 146 223
228 358 161z m4523 -33 l0 -55 -330 0 -330 0 0 23 c0 25 25 59 55 75 13 8 119
11 313 12 l292 0 0 -55z m-85 -145 c-3 -5 -46 -10 -95 -10 -49 0 -92 5 -95 10
-4 6 30 10 95 10 65 0 99 -4 95 -10z m-139 -127 c-7 -8 -257 -5 -265 3 -2 2
58 4 134 4 76 0 135 -3 131 -7z m-1 -43 c-3 -5 -24 -10 -45 -10 -21 0 -42 5
-45 10 -4 6 13 10 45 10 32 0 49 -4 45 -10z m-3925 -70 c0 -6 -42 -10 -105
-10 -63 0 -105 4 -105 10 0 6 42 10 105 10 63 0 105 -4 105 -10z m215 -50 c4
-7 -68 -10 -210 -10 -142 0 -214 3 -210 10 4 6 85 10 210 10 125 0 206 -4 210
-10z m1841 -34 c19 -19 34 -42 34 -52 0 -14 -5 -10 -20 13 -26 43 -62 50 -234
49 l-140 -1 -48 -144 c-26 -79 -50 -146 -53 -149 -20 -20 -11 26 30 148 43
128 50 171 26 144 -5 -5 -30 -73 -56 -151 -38 -118 -50 -143 -66 -143 -10 0
-19 5 -19 12 0 7 20 72 45 145 25 73 45 134 45 135 0 2 -44 4 -98 5 -125 3
-167 -8 -192 -50 -15 -23 -20 -27 -20 -13 0 10 15 33 34 52 l34 34 332 0 332
0 34 -34z m1869 -16 c-4 -6 -60 -10 -136 -10 -79 0 -129 4 -129 10 0 6 52 10
136 10 87 0 133 -4 129 -10z m0 -40 c4 -6 -43 -10 -134 -10 -87 0 -141 4 -141
10 0 6 51 10 134 10 79 0 137 -4 141 -10z m-3759 -126 c34 -16 64 -58 64 -89
0 -13 -55 -15 -495 -15 l-495 0 0 60 0 60 446 0 c392 0 450 -2 480 -16z m3759
-44 c-4 -6 -60 -10 -136 -10 -79 0 -129 4 -129 10 0 6 52 10 136 10 87 0 133
-4 129 -10z m-5 -40 c0 -6 -38 -10 -95 -10 -57 0 -95 4 -95 10 0 6 38 10 95
10 57 0 95 -4 95 -10z m-1935 -48 l40 -8 -26 -17 c-19 -13 -29 -32 -39 -75
-10 -46 -20 -65 -56 -98 l-44 -41 0 -80 c0 -66 -3 -83 -19 -97 -25 -23 -114
-56 -151 -56 -37 0 -126 33 -151 56 -14 13 -19 31 -19 70 0 51 1 53 26 51 16
-1 31 5 38 16 16 26 -4 52 -43 53 -54 2 -104 63 -117 144 -5 31 -13 44 -30 51
-13 4 -24 16 -24 24 0 9 3 14 8 12 4 -3 43 -1 87 3 89 10 458 4 520 -8z
m-1845 -42 c0 -7 -150 -10 -431 -10 -284 0 -428 3 -424 10 8 14 855 14 855 0z
m3785 -80 c-4 -6 -60 -10 -136 -10 -79 0 -129 4 -129 10 0 6 52 10 136 10 87
0 133 -4 129 -10z m0 -40 c4 -6 -30 -10 -94 -10 -61 0 -101 4 -101 10 0 6 38
10 94 10 53 0 98 -4 101 -10z m-3790 -250 c-8 -14 -842 -14 -850 0 -4 7 140
10 425 10 285 0 429 -3 425 -10z m3415 -101 l0 -110 -32 3 -33 3 -3 84 c-5
113 1 131 38 131 l30 0 0 -111z m120 1 l0 -110 -30 0 c-16 0 -30 5 -30 10 -1
6 -1 53 -1 105 0 52 0 97 1 100 0 3 14 5 30 5 l30 0 0 -110z m120 0 l0 -110
-30 0 -30 0 0 110 0 110 30 0 30 0 0 -110z m120 0 l0 -110 -30 0 -30 0 0 110
0 110 30 0 30 0 0 -110z m120 5 l0 -105 -30 0 -30 0 0 105 0 105 30 0 30 0 0
-105z m120 0 l0 -105 -30 0 -30 0 0 105 0 105 30 0 30 0 0 -105z m-4010 5 c0
-7 -150 -10 -430 -10 -280 0 -430 3 -430 10 0 7 150 10 430 10 280 0 430 -3
430 -10z m1638 -394 c26 -25 43 -48 39 -52 -4 -4 -27 11 -50 34 -26 26 -52 42
-67 42 -15 0 -41 -16 -67 -42 -23 -23 -46 -38 -50 -34 -4 4 13 27 39 52 35 33
55 44 78 44 23 0 43 -11 78 -44z m-427 -300 c-40 -41 -40 -74 -1 -111 17 -16
30 -36 30 -44 0 -10 -15 0 -40 26 -53 56 -53 88 -3 144 21 23 39 36 41 29 2
-6 -10 -26 -27 -44z m749 -56 c0 -22 -11 -43 -40 -73 -25 -26 -40 -36 -40 -26
0 8 14 28 30 44 18 18 30 39 30 55 0 16 -12 37 -30 55 -16 16 -30 36 -30 44 0
10 15 0 40 -26 29 -30 40 -51 40 -73z m-1843 9 l34 -21 49 21 c98 42 120 31
320 -161 l132 -127 23 -78 c13 -43 39 -134 59 -202 34 -115 36 -125 21 -147
-8 -13 -20 -24 -25 -24 -6 0 -10 -6 -10 -14 0 -27 -28 -43 -86 -50 -41 -5 -63
-3 -78 8 -12 7 -59 70 -105 140 -46 69 -85 125 -87 124 -1 -2 4 -43 13 -93 11
-66 23 -101 44 -132 16 -23 29 -47 29 -53 0 -15 -35 -26 -106 -34 -58 -6 -65
-5 -107 24 -37 24 -50 42 -67 87 -12 31 -43 87 -71 125 -27 37 -49 72 -49 78
0 6 14 13 30 17 17 3 30 10 30 16 0 5 -10 45 -22 89 -20 75 -23 79 -47 74
-145 -28 -141 -26 -136 -49 2 -12 14 -77 25 -145 11 -68 29 -146 40 -175 28
-73 26 -118 -6 -151 -34 -33 -98 -36 -136 -6 -23 18 -28 18 -79 5 -79 -22
-122 -19 -146 7 -11 13 -48 64 -82 114 -81 117 -82 139 -17 277 40 84 54 103
101 140 30 23 55 48 55 56 0 8 9 34 21 58 24 49 61 73 113 73 29 0 42 9 91 63
31 34 66 67 78 74 36 20 115 16 154 -8z m3198 -3 c11 -8 33 -12 54 -9 52 7 78
-18 164 -160 102 -167 110 -185 103 -219 -4 -22 2 -41 31 -84 51 -77 46 -83
-108 -110 -136 -24 -141 -23 -161 32 -6 19 -15 34 -18 34 -7 0 -30 -106 -30
-139 0 -17 5 -22 23 -19 19 3 28 -8 59 -72 55 -111 54 -112 -77 -131 -60 -10
-131 -17 -157 -18 -45 -1 -47 0 -53 31 -4 18 -16 53 -27 76 l-19 44 27 151
c21 121 25 166 20 221 -5 37 -11 64 -16 60 -18 -19 -68 -205 -80 -297 -11 -85
-11 -100 3 -115 20 -23 54 -170 41 -181 -5 -5 -74 -16 -154 -25 -171 -20 -165
-23 -175 89 -8 81 -4 95 27 95 21 0 21 2 15 140 l-7 140 40 102 c22 56 39 103
37 104 -2 2 -34 -28 -72 -66 l-68 -69 -18 -108 c-10 -59 -18 -127 -19 -150 0
-23 -5 -45 -11 -48 -22 -14 -264 -34 -276 -23 -18 14 -18 157 0 163 6 2 33 6
58 10 l46 6 7 96 8 97 98 127 c126 161 147 179 210 179 26 0 62 -6 79 -13 31
-13 34 -12 66 20 27 27 41 33 77 33 24 0 58 -4 75 -9 25 -7 40 -5 70 10 44 22
82 24 108 5z"/>
<path d="M4646 3238 c-21 -29 -20 -41 2 -61 37 -34 82 -15 82 33 0 51 -55 69
-84 28z"/>
<path d="M856 3245 c-77 -27 -142 -114 -153 -203 -10 -92 29 -175 110 -229
122 -82 290 -36 355 96 98 201 -98 412 -312 336z"/>
<path d="M1890 883 c0 -5 7 -45 16 -90 15 -74 18 -81 35 -73 10 6 29 10 43 10
43 0 30 37 -42 114 -42 46 -52 53 -52 39z"/>
<path d="M1256 604 c-16 -34 -16 -38 2 -67 10 -18 25 -33 34 -35 14 -3 14 3 2
64 -8 37 -16 69 -17 71 -2 1 -11 -13 -21 -33z"/>
<path d="M4955 875 c11 -92 15 -105 36 -105 29 0 24 42 -12 103 l-31 52 7 -50z"/>
</g>
</svg>
