<?xml version="1.0" standalone="no"?>
<!DOCTYPE svg PUBLIC "-//W3C//DTD SVG 20010904//EN"
 "http://www.w3.org/TR/2001/REC-SVG-20010904/DTD/svg10.dtd">
<svg version="1.0" xmlns="http://www.w3.org/2000/svg"
 width="600.000000pt" height="564.000000pt" viewBox="0 0 600.000000 564.000000"
 preserveAspectRatio="xMidYMid meet">

<g transform="translate(0.000000,564.000000) scale(0.100000,-0.100000)"
fill="#000000" stroke="none">
<path d="M4895 5324 c-65 -34 -95 -82 -95 -154 0 -68 40 -125 111 -154 35 -15
37 -18 53 -98 9 -46 19 -93 22 -105 6 -22 3 -23 -43 -23 -49 0 -73 -12 -73
-37 0 -10 39 -13 179 -13 99 0 182 4 186 9 12 21 -27 41 -79 41 l-53 0 -25
118 -25 117 22 25 c59 65 69 130 32 200 -40 76 -141 111 -212 74z m138 -68
c27 -20 40 -68 27 -100 -13 -36 -34 -28 -38 15 -2 19 -13 44 -24 56 -32 34 -4
58 35 29z"/>
<path d="M2682 5114 c-80 -21 -107 -39 -150 -99 -48 -67 -146 -350 -164 -472
-22 -149 15 -240 109 -267 18 -6 37 8 105 75 46 46 103 95 127 111 l45 28 246
0 246 0 45 -28 c24 -16 81 -65 127 -111 68 -67 87 -81 105 -75 62 18 102 69
113 144 11 72 -11 189 -72 371 -70 211 -111 275 -196 307 -83 31 -131 36 -167
18 -42 -22 -363 -23 -401 -1 -31 18 -51 18 -118 -1z m358 -52 c44 -36 17 -112
-40 -112 -57 0 -84 76 -40 112 12 10 30 18 40 18 10 0 28 -8 40 -18z m322 -69
c40 -36 5 -102 -48 -89 -24 6 -26 5 -20 -17 12 -51 -51 -88 -88 -51 -39 38 6
110 53 85 29 -16 32 -14 19 14 -24 52 41 97 84 58z m-616 -47 c70 -70 26 -175
-73 -176 -108 0 -144 146 -48 198 40 22 85 14 121 -22z m702 -32 c42 -29 19
-94 -33 -94 -29 0 -59 41 -51 68 5 16 36 39 56 41 3 1 16 -6 28 -15z m-520
-13 c21 -13 11 -55 -15 -59 -30 -4 -49 31 -27 52 18 18 24 19 42 7z m187 -7
c18 -18 16 -33 -7 -47 -35 -22 -66 21 -36 51 16 16 23 15 43 -4z m243 -70 c41
-29 19 -94 -33 -94 -24 0 -55 33 -55 57 0 7 9 22 20 33 24 24 38 25 68 4z
m-117 -75 c49 -53 36 -135 -28 -168 -42 -21 -83 -13 -119 23 -70 70 -26 175
74 176 36 0 49 -5 73 -31z m-373 -21 c3 -21 9 -27 30 -30 23 -2 27 -8 27 -33
0 -25 -4 -30 -27 -33 -22 -3 -28 -9 -28 -28 0 -21 -5 -24 -35 -24 -31 0 -35 3
-35 25 0 20 -5 25 -25 25 -22 0 -25 4 -25 35 0 31 3 35 25 35 20 0 25 5 25 23
0 31 9 39 40 35 19 -2 26 -10 28 -30z"/>
<path d="M2957 5043 c-4 -3 -7 -18 -7 -32 l1 -26 14 25 c8 14 14 28 15 33 0 9
-14 9 -23 0z"/>
<path d="M3020 5043 c1 -4 7 -19 16 -33 l14 -25 -2 29 c-2 16 -9 31 -15 34 -7
2 -13 0 -13 -5z"/>
<path d="M2980 5005 c-17 -20 -5 -45 20 -45 11 0 23 7 26 15 6 15 -11 45 -26
45 -4 0 -13 -7 -20 -15z"/>
<path d="M3306 4987 c-26 -19 -18 -61 12 -65 44 -7 67 32 36 62 -19 19 -25 20
-48 3z"/>
<path d="M3211 4896 c-16 -20 -5 -53 20 -61 27 -9 51 13 47 44 -2 20 -9 27
-29 29 -14 2 -31 -4 -38 -12z"/>
<path d="M2631 4956 c-76 -43 -61 -156 23 -172 94 -17 150 95 79 158 -27 24
-73 31 -102 14z m73 -17 c55 -26 52 -106 -6 -130 -82 -34 -137 88 -58 128 31
16 33 16 64 2z"/>
<path d="M2630 4915 c-7 -8 -12 -26 -12 -40 0 -36 20 -55 58 -55 35 0 54 20
54 59 0 44 -72 70 -100 36z"/>
<path d="M3387 4903 c-12 -12 -7 -50 8 -63 8 -6 23 -9 34 -5 25 8 36 41 21 60
-13 15 -51 20 -63 8z"/>
<path d="M2892 4873 c4 -21 33 -25 33 -3 0 8 -8 16 -18 18 -14 3 -18 -1 -15
-15z"/>
<path d="M3074 4879 c-3 -6 -2 -15 4 -21 13 -13 32 -2 32 18 0 16 -26 19 -36
3z"/>
<path d="M3297 4813 c-12 -12 -7 -50 8 -63 8 -6 23 -9 34 -5 25 8 36 41 21 60
-13 15 -51 20 -63 8z"/>
<path d="M3118 4755 c-32 -18 -52 -72 -39 -106 39 -102 181 -74 181 36 0 36
-50 85 -87 85 -15 -1 -40 -7 -55 -15z m97 -30 c27 -26 32 -61 12 -86 -56 -73
-164 -10 -122 71 24 47 72 54 110 15z"/>
<path d="M3138 4726 c-29 -14 -36 -66 -13 -90 34 -34 98 -10 98 37 0 49 -41
75 -85 53z"/>
<path d="M2820 4715 c0 -21 -5 -25 -30 -25 -23 0 -30 -5 -30 -19 0 -14 8 -21
28 -23 21 -2 28 -9 30 -30 2 -20 9 -28 23 -28 14 0 19 7 19 30 0 25 4 30 25
30 18 0 25 5 25 20 0 15 -7 20 -25 20 -20 0 -25 5 -25 25 0 18 -5 25 -20 25
-15 0 -20 -7 -20 -25z"/>
<path d="M572 5090 c-42 -10 -67 -39 -108 -125 -52 -110 -116 -463 -100 -549
15 -79 109 -133 182 -105 49 19 67 45 112 164 35 92 40 100 63 97 13 -2 43 -6
67 -9 30 -3 50 0 67 11 35 23 255 23 290 0 17 -11 37 -14 67 -11 24 3 54 7 67
9 23 3 28 -5 63 -97 45 -119 63 -145 112 -164 73 -28 167 26 182 105 9 47 -7
184 -42 354 -25 126 -70 241 -112 288 -37 41 -118 49 -167 16 -11 -8 -36 -14
-57 -14 l-38 0 0 -102 c0 -57 -5 -110 -10 -118 -8 -12 -44 -16 -199 -18 -124
-2 -197 1 -211 8 -18 10 -20 20 -20 120 l0 110 -38 0 c-21 0 -46 6 -57 14 -28
19 -74 26 -113 16z m186 -94 c-2 -23 -8 -31 -23 -31 -23 0 -33 38 -15 60 19
23 41 6 38 -29z m522 29 c17 -21 4 -67 -18 -63 -18 3 -28 39 -18 64 7 18 20
18 36 -1z m155 -25 c27 -29 10 -74 -28 -78 -36 -4 -57 13 -57 49 0 47 53 65
85 29z m-802 -58 c-1 -30 1 -33 25 -31 36 4 52 -7 52 -35 0 -32 -22 -48 -55
-40 -26 6 -27 5 -20 -24 5 -25 2 -33 -15 -42 -35 -19 -60 -4 -60 36 0 32 -2
34 -32 32 -31 -3 -33 -1 -36 35 -3 38 0 41 46 37 19 -1 22 3 22 35 0 36 0 36
38 33 35 -3 37 -5 35 -36z m712 -32 c15 -16 17 -26 9 -48 -17 -50 -94 -39 -94
14 0 49 52 70 85 34z m180 0 c24 -27 13 -68 -22 -76 -34 -9 -57 6 -61 42 -6
49 49 72 83 34z m-90 -90 c24 -27 13 -68 -22 -76 -34 -9 -57 6 -61 42 -6 49
49 72 83 34z m-462 -40 c-12 -5 -26 -17 -32 -27 -6 -10 -11 -14 -11 -9 0 16
32 46 49 45 11 0 9 -3 -6 -9z m-142 -29 c16 -13 23 -29 23 -55 0 -47 -23 -70
-70 -70 -68 0 -97 72 -49 119 29 30 64 32 96 6z m411 5 c43 -32 38 -103 -8
-125 -35 -16 -47 -14 -78 10 -36 28 -36 80 0 108 30 24 61 26 86 7z m-214 -18
c2 -10 -1 -18 -7 -18 -5 0 -12 8 -14 18 -4 13 -5 11 -6 -5 -1 -18 4 -23 24
-23 28 0 35 -19 8 -21 -73 -6 -101 -3 -91 9 6 6 17 12 24 12 8 0 14 11 14 26
0 21 4 25 22 22 13 -2 24 -11 26 -20z m-101 -30 c-3 -8 -6 -5 -6 6 -1 11 2 17
5 13 3 -3 4 -12 1 -19z m134 -35 c-12 -20 -14 -14 -5 12 4 9 9 14 11 11 3 -2
0 -13 -6 -23z m-28 -25 c-2 -5 -17 -8 -33 -8 -16 0 -31 3 -33 8 -3 4 12 7 33
7 21 0 36 -3 33 -7z"/>
<path d="M724 5005 c-7 -17 4 -37 17 -30 12 8 12 45 -1 45 -6 0 -13 -7 -16
-15z"/>
<path d="M1250 5001 c0 -11 5 -23 10 -26 6 -4 10 5 10 19 0 14 -4 26 -10 26
-5 0 -10 -9 -10 -19z"/>
<path d="M1363 4984 c-8 -21 9 -48 32 -53 26 -5 47 26 34 50 -12 23 -57 25
-66 3z"/>
<path d="M570 4946 c0 -14 9 -31 20 -39 11 -8 17 -17 13 -20 -3 -4 -13 -1 -22
6 -14 10 -14 10 -4 -4 7 -9 10 -19 6 -22 -3 -4 -12 2 -20 13 -8 11 -25 20 -39
20 -19 0 -24 -5 -24 -25 0 -24 2 -25 58 -23 l57 3 3 58 c2 55 1 57 -23 57 -20
0 -25 -5 -25 -24z"/>
<path d="M632 4888 c-16 -16 3 -38 34 -38 19 0 24 5 24 25 0 19 -5 25 -23 25
-13 0 -28 -5 -35 -12z"/>
<path d="M582 4838 c-7 -7 -12 -22 -12 -35 0 -18 6 -23 25 -23 20 0 25 5 25
24 0 31 -22 50 -38 34z"/>
<path d="M1287 4909 c-32 -18 -14 -69 25 -69 19 0 42 35 33 50 -12 19 -40 28
-58 19z"/>
<path d="M1467 4909 c-37 -21 -8 -77 33 -64 13 4 20 15 20 30 0 29 -28 47 -53
34z"/>
<path d="M1378 4819 c-37 -21 -10 -77 31 -64 27 8 32 29 15 54 -17 24 -22 25
-46 10z"/>
<path d="M760 4747 c-53 -27 -40 -99 18 -105 43 -4 62 12 62 53 0 47 -39 72
-80 52z"/>
<path d="M1182 4749 c-35 -13 -48 -53 -28 -84 30 -45 106 -25 106 28 0 42 -40
70 -78 56z"/>
<path d="M797 5053 c-9 -8 -9 -176 -1 -197 5 -14 33 -16 205 -16 l199 0 0 110
0 110 -198 0 c-109 0 -202 -3 -205 -7z"/>
<path d="M4808 4719 c-10 -5 -18 -17 -18 -24 0 -13 40 -15 265 -15 226 0 265
2 265 15 0 8 -9 19 -19 25 -26 13 -470 13 -493 -1z"/>
<path d="M4742 4648 c-7 -7 -12 -20 -12 -30 0 -22 -35 -25 -44 -3 -3 8 -15 15
-26 15 -11 0 -20 -7 -20 -15 0 -10 -10 -15 -28 -15 -44 0 -52 -16 -52 -100 l0
-76 -35 -17 c-79 -38 -94 -121 -33 -184 40 -41 80 -53 184 -53 106 0 170 -20
228 -71 48 -42 76 -46 76 -10 0 23 -70 86 -120 108 -22 10 -82 19 -162 23
-138 8 -173 20 -184 65 -6 25 17 75 36 75 5 0 10 -12 12 -27 l3 -28 479 -3
c345 -1 483 1 492 9 19 15 20 259 2 277 -7 7 -42 12 -85 12 -64 0 -73 2 -73
18 0 40 -12 42 -325 42 -221 0 -304 -3 -313 -12z"/>
<path d="M878 3445 c-112 -28 -225 -101 -304 -196 -116 -139 -148 -273 -142
-609 l3 -195 37 -3 c34 -3 37 -5 43 -45 4 -23 13 -53 20 -67 39 -76 164 -130
300 -130 30 0 57 -4 60 -10 9 -15 208 -13 223 2 14 14 16 67 2 88 -7 11 -32
15 -105 16 -80 2 -99 -1 -119 -17 -40 -31 -187 -17 -251 25 -34 22 -65 74 -65
108 0 25 3 27 48 30 l47 3 0 225 0 225 -62 3 c-72 3 -72 3 -48 97 47 179 194
318 369 348 242 41 491 -155 518 -408 l3 -30 -65 -5 -65 -5 0 -225 0 -225 120
0 120 0 0 255 c0 283 -5 320 -62 437 -63 131 -186 241 -323 291 -83 30 -220
38 -302 17z"/>
<path d="M4926 3445 c-142 -50 -181 -243 -70 -347 106 -99 274 -65 335 67 77
166 -90 343 -265 280z m157 -150 c37 -65 66 -124 63 -132 -8 -19 -284 -19
-292 0 -3 8 21 58 52 113 79 139 84 146 97 141 7 -2 43 -57 80 -122z"/>
<path d="M4955 3277 c-22 -39 -41 -75 -43 -79 -2 -5 38 -8 88 -8 50 0 90 3 88
8 -12 29 -84 152 -88 152 -3 0 -23 -33 -45 -73z"/>
<path d="M2372 3378 c-17 -17 -17 -669 0 -686 9 -9 72 -12 220 -12 200 0 208
-1 208 -20 0 -16 -8 -19 -57 -22 -44 -2 -58 -7 -58 -18 0 -13 42 -15 315 -15
273 0 315 2 315 15 0 11 -14 16 -57 18 -50 3 -58 6 -58 22 0 18 7 20 85 20 84
0 85 0 85 -25 0 -17 9 -29 28 -39 15 -8 37 -25 50 -39 l23 -24 -20 -34 c-30
-51 -43 -121 -30 -158 13 -38 35 -51 87 -51 54 0 82 31 82 91 0 47 -29 121
-52 135 -8 5 -29 32 -47 59 -18 28 -40 54 -47 58 -33 19 -9 27 79 27 59 0 97
4 105 12 17 17 17 669 0 686 -17 17 -1239 17 -1256 0z m1196 -60 c17 -17 17
-549 0 -566 -17 -17 -1119 -17 -1136 0 -17 17 -17 549 0 566 17 17 1119 17
1136 0z"/>
<path d="M4485 3011 c-128 -58 -164 -223 -72 -328 101 -115 283 -88 348 52 79
171 -104 354 -276 276z m205 -191 l0 -120 -120 0 -120 0 0 120 0 120 120 0
120 0 0 -120z"/>
<path d="M4490 2820 l0 -80 80 0 80 0 0 80 0 80 -80 0 -80 0 0 -80z"/>
<path d="M5345 3011 c-168 -78 -164 -314 7 -385 133 -56 288 49 288 194 0 149
-161 253 -295 191z m163 -61 c45 -28 72 -76 72 -130 0 -89 -64 -150 -158 -150
-47 0 -57 4 -93 38 -46 42 -62 91 -48 150 5 24 22 50 48 75 36 33 46 37 93 37
35 0 64 -7 86 -20z"/>
<path d="M5354 2896 c-28 -28 -34 -42 -34 -76 0 -34 6 -48 34 -76 28 -28 42
-34 76 -34 34 0 48 6 76 34 28 28 34 42 34 76 0 34 -6 48 -34 76 -28 28 -42
34 -76 34 -34 0 -48 -6 -76 -34z"/>
<path d="M4915 2581 c-140 -65 -167 -247 -52 -348 105 -92 270 -56 328 72 78
172 -105 355 -276 276z m47 -118 l38 -37 38 37 c37 37 72 48 72 25 0 -7 -18
-31 -40 -53 l-41 -42 41 -39 c39 -38 53 -74 28 -74 -7 0 -32 19 -55 42 l-43
42 -43 -42 c-23 -23 -48 -42 -55 -42 -25 0 -11 36 28 74 l41 39 -41 42 c-22
22 -40 46 -40 53 0 23 35 12 72 -25z"/>
<path d="M2462 2513 c-6 -10 -15 -66 -22 -125 -10 -87 -10 -110 0 -123 11 -13
70 -15 450 -15 388 0 439 2 451 16 11 13 9 36 -11 137 l-25 122 -417 3 c-390
2 -418 1 -426 -15z"/>
<path d="M862 1565 c-188 -42 -352 -175 -438 -352 -149 -309 -20 -689 287
-841 193 -96 385 -96 578 0 147 73 259 202 319 370 23 64 26 88 26 198 0 110
-3 134 -26 198 -37 103 -83 175 -158 251 -119 121 -256 181 -425 187 -64 2
-123 -1 -163 -11z m278 -90 c189 -50 345 -206 395 -395 19 -71 19 -209 0 -280
-50 -189 -206 -345 -395 -395 -71 -19 -209 -19 -280 0 -189 50 -345 206 -395
395 -19 71 -19 209 0 280 50 187 205 344 391 395 66 18 216 18 284 0z"/>
<path d="M880 1371 c-5 -11 -10 -83 -10 -160 l0 -141 -141 0 c-77 0 -149 -5
-160 -10 -17 -10 -19 -22 -19 -120 0 -98 2 -110 19 -120 11 -5 83 -10 160 -10
l141 0 0 -141 c0 -77 5 -149 10 -160 10 -17 22 -19 120 -19 98 0 110 2 120 19
5 11 10 83 10 160 l0 141 141 0 c77 0 149 5 160 10 17 10 19 22 19 120 0 98
-2 110 -19 120 -11 5 -83 10 -160 10 l-141 0 0 141 c0 77 -5 149 -10 160 -10
17 -22 19 -120 19 -98 0 -110 -2 -120 -19z m157 -106 l32 -55 -69 0 -69 0 32
55 c17 30 34 55 37 55 3 0 20 -25 37 -55z m-307 -324 l0 -70 -55 32 c-30 17
-55 34 -55 37 0 4 92 64 108 69 1 1 2 -30 2 -68z m650 -1 c0 -3 -25 -20 -55
-37 l-55 -32 0 69 0 69 55 -32 c30 -17 55 -34 55 -37z m-343 -325 c-17 -30
-34 -55 -37 -55 -3 0 -20 25 -37 55 l-32 55 69 0 69 0 -32 -55z"/>
<path d="M2920 1464 c-80 -28 -145 -108 -138 -170 5 -43 40 -40 49 3 15 76 82
124 173 124 93 0 156 -42 175 -116 8 -33 16 -45 30 -45 47 0 30 91 -28 149
-66 66 -167 87 -261 55z"/>
<path d="M4881 1434 c-62 -31 -103 -86 -105 -141 -1 -29 3 -38 18 -41 21 -4
36 13 36 44 0 55 88 114 170 114 82 0 170 -59 170 -114 0 -31 15 -48 36 -44
28 6 23 68 -9 117 -59 88 -207 119 -316 65z"/>
<path d="M2944 1376 c-41 -18 -76 -64 -72 -95 4 -37 32 -33 60 8 41 62 127 59
154 -4 19 -45 54 -49 54 -6 0 79 -111 134 -196 97z"/>
<path d="M4961 1370 c-36 -9 -85 -53 -95 -86 -3 -11 0 -29 8 -39 12 -16 16
-17 30 -6 9 7 16 22 16 32 0 10 10 25 22 33 46 32 138 10 138 -33 0 -10 7 -25
16 -32 14 -11 18 -10 30 6 8 10 11 28 8 39 -8 29 -70 86 -93 86 -11 0 -25 2
-33 4 -7 2 -28 0 -47 -4z"/>
<path d="M2987 1289 c-39 -22 -5 -89 37 -73 18 7 30 39 21 54 -12 19 -40 29
-58 19z"/>
<path d="M4970 1265 c-26 -32 13 -81 48 -59 34 22 22 74 -18 74 -10 0 -23 -7
-30 -15z"/>
<path d="M4575 1203 c-33 -9 -52 -31 -65 -78 -7 -24 -23 -54 -37 -67 -50 -46
-63 -90 -90 -307 -26 -203 -26 -209 -9 -255 21 -55 54 -76 119 -76 72 0 118
41 189 170 l17 31 40 -21 c71 -35 146 -18 187 45 14 22 23 25 74 25 51 0 60
-3 74 -25 41 -63 116 -80 187 -45 l40 21 17 -31 c71 -129 117 -170 189 -170
65 0 98 21 119 76 17 46 17 52 -9 255 -27 217 -40 261 -90 307 -14 13 -30 43
-37 67 -18 63 -40 80 -109 80 -52 0 -61 -3 -84 -30 -14 -17 -28 -42 -31 -57
l-5 -28 -261 0 -260 0 -6 28 c-10 47 -48 82 -96 86 -24 3 -52 2 -63 -1z m847
-140 c20 -18 24 -63 6 -81 -17 -17 -64 -15 -82 4 -50 49 24 124 76 77z m-772
-74 c0 -39 1 -40 28 -34 36 7 55 -12 50 -52 -3 -25 -7 -28 -41 -28 -36 0 -37
-1 -37 -37 0 -38 0 -38 -40 -38 -39 0 -40 1 -40 33 0 37 31 74 51 62 7 -5 10
-3 7 6 -3 8 2 23 11 34 9 12 10 15 1 8 -8 -7 -22 -13 -32 -13 -11 0 -15 -5
-12 -14 7 -19 -33 -46 -68 -46 -22 0 -29 6 -34 27 -10 39 7 59 49 55 32 -2 34
-1 30 23 -8 40 3 55 42 55 34 0 35 -1 35 -41z m280 24 c0 -6 -5 -15 -12 -19
-7 -5 -8 -3 -3 6 6 10 4 12 -8 7 -10 -4 -17 -1 -17 6 0 7 9 13 20 13 11 0 20
-6 20 -13z m24 2 c-4 -8 -8 -15 -10 -15 -2 0 -4 7 -4 15 0 8 4 15 10 15 5 0 7
-7 4 -15z m34 -2 c-2 -9 -10 -18 -18 -20 -12 -4 -13 -3 -1 5 7 5 10 15 7 21
-4 6 -2 11 4 11 6 0 10 -8 8 -17z m38 6 c4 -8 9 -7 15 2 7 11 9 11 9 -2 0 -12
-8 -16 -25 -15 -14 0 -25 7 -25 14 0 15 16 16 26 1z m72 -7 c-8 -9 -14 -9 -24
-1 -19 16 -18 17 10 15 18 -1 22 -4 14 -14z m222 -52 c32 -32 24 -75 -18 -91
-58 -22 -101 60 -50 95 30 21 44 20 68 -4z m198 4 c52 -36 7 -119 -52 -93 -44
21 -46 81 -3 99 30 12 30 12 55 -6z m-601 -40 c7 -19 -9 -31 -40 -29 -14 1
-23 9 -25 23 -3 19 1 22 28 22 19 0 33 -6 37 -16z m211 10 c30 -9 28 -20 -7
-32 -33 -12 -41 -7 -41 20 0 19 10 22 48 12z m-149 -67 c-2 -1 -13 -9 -24 -17
-19 -14 -19 -14 -6 3 7 9 18 17 24 17 6 0 8 -1 6 -3z m76 -17 c26 -28 15 -31
-12 -3 -12 13 -19 23 -14 23 4 0 16 -9 26 -20z m373 8 c28 -28 1 -98 -37 -98
-50 0 -79 61 -45 94 18 19 65 21 82 4z m-398 -48 c0 -26 -9 -25 -20 3 l-9 22
0 -22 c-1 -22 8 -28 38 -24 7 2 10 -2 6 -8 -8 -13 -64 -14 -84 -2 -11 7 -9 10
8 16 14 4 21 15 21 31 0 22 3 23 20 14 11 -6 20 -20 20 -30z m-155 -31 c22
-42 18 -67 -14 -100 -67 -67 -171 -4 -141 86 23 69 122 78 155 14z m354 40
c63 -22 77 -107 24 -149 -71 -55 -166 19 -132 103 10 24 31 39 75 57 1 0 15
-5 33 -11z m-256 -88 c-4 -6 -43 30 -43 40 0 5 10 -2 23 -14 13 -12 22 -24 20
-26z m77 14 c-7 -8 -17 -15 -23 -15 -6 0 -2 7 9 15 25 19 30 19 14 0z"/>
<path d="M5360 1052 c-28 -23 -20 -59 16 -68 47 -12 72 37 36 69 -23 21 -25
21 -52 -1z"/>
<path d="M4587 1014 c-11 -12 -8 -39 7 -59 12 -17 16 -17 30 -5 24 19 17 64
-9 68 -12 2 -24 0 -28 -4z"/>
<path d="M4510 909 c0 -29 2 -31 28 -24 35 8 46 20 39 39 -4 10 -18 16 -37 16
-27 0 -30 -3 -30 -31z"/>
<path d="M4650 925 c-15 -19 -6 -30 31 -39 27 -6 41 12 32 42 -6 17 -48 15
-63 -3z"/>
<path d="M4592 868 c-6 -6 -12 -22 -12 -35 0 -19 5 -23 31 -23 28 0 30 2 27
32 -3 35 -25 47 -46 26z"/>
<path d="M5252 948 c-27 -27 -6 -68 35 -68 29 0 48 33 33 60 -12 22 -49 27
-68 8z"/>
<path d="M5454 946 c-3 -8 -4 -25 -2 -38 2 -18 9 -23 32 -23 36 0 56 27 40 53
-14 22 -62 28 -70 8z"/>
<path d="M4865 920 c-3 -5 3 -10 14 -10 12 0 21 5 21 10 0 6 -6 10 -14 10 -8
0 -18 -4 -21 -10z"/>
<path d="M5090 920 c0 -5 7 -10 16 -10 8 0 12 5 9 10 -3 6 -10 10 -16 10 -5 0
-9 -4 -9 -10z"/>
<path d="M5348 834 c-11 -23 -10 -29 11 -45 21 -17 26 -18 45 -6 41 27 27 77
-20 77 -17 0 -28 -9 -36 -26z"/>
<path d="M4750 790 c-30 -30 -27 -83 6 -109 34 -27 57 -26 88 2 53 47 25 127
-44 127 -17 0 -39 -9 -50 -20z"/>
<path d="M5157 798 c-45 -35 -37 -98 16 -128 24 -13 30 -13 54 0 39 22 54 55
41 91 -16 46 -73 65 -111 37z"/>
<path d="M2550 1183 c-67 -27 -132 -207 -175 -487 -23 -144 -17 -207 20 -246
54 -56 149 -64 193 -17 23 24 59 102 86 184 10 29 21 55 25 57 4 3 28 -1 52
-8 39 -12 50 -12 84 2 56 23 274 23 330 0 34 -14 45 -14 84 -2 24 7 48 11 52
8 4 -2 15 -28 25 -57 27 -82 63 -160 86 -184 44 -47 139 -39 193 17 22 23 29
41 33 83 9 109 -60 455 -110 547 -50 94 -61 104 -132 108 -48 3 -65 0 -75 -12
-9 -10 -29 -16 -57 -16 l-44 0 0 -101 c0 -55 -5 -109 -10 -120 -10 -18 -23
-19 -208 -19 -141 0 -201 3 -210 12 -8 8 -12 49 -12 120 l0 108 -44 0 c-26 0
-48 6 -56 15 -12 15 -98 20 -130 8z m205 -88 c0 -23 -4 -30 -20 -30 -21 0 -31
25 -21 51 11 28 41 12 41 -21z m530 16 c8 -26 -4 -51 -26 -51 -15 0 -19 7 -19
35 0 28 4 35 19 35 11 0 22 -8 26 -19z m145 -11 c11 -11 20 -27 20 -35 0 -16
-34 -55 -48 -55 -20 0 -52 34 -52 55 0 21 32 55 52 55 5 0 17 -9 28 -20z
m-796 -57 c-2 -31 0 -33 31 -33 37 0 52 -23 40 -61 -6 -18 -13 -20 -41 -16
l-35 6 7 -34 c5 -31 3 -35 -20 -41 -40 -10 -56 1 -56 38 0 31 -2 33 -32 33
-31 0 -33 2 -33 35 0 32 3 35 33 38 28 3 32 7 32 31 0 36 8 43 45 39 27 -3 30
-6 29 -35z m704 -29 c49 -34 -3 -113 -53 -80 -29 19 -31 61 -3 80 12 9 25 16
28 16 3 0 16 -7 28 -16z m182 -4 c23 -23 25 -40 8 -62 -20 -24 -44 -28 -67
-12 -32 23 -27 73 9 87 25 9 29 8 50 -13z m-89 -89 c20 -16 22 -23 14 -47 -18
-51 -95 -42 -95 12 0 25 24 54 45 54 7 0 23 -9 36 -19z m-397 -39 c3 -5 -8 -7
-23 -4 -16 2 -39 -1 -52 -8 -23 -11 -23 -10 -5 4 21 17 71 22 80 8z m-183 -64
c10 -26 10 -35 -2 -57 -32 -56 -112 -49 -133 12 -30 83 101 127 135 45z m213
36 c3 -8 2 -12 -4 -9 -6 3 -10 10 -10 16 0 14 7 11 14 -7z m188 -13 c43 -42
12 -121 -49 -121 -34 0 -73 36 -73 67 0 71 72 103 122 54z m-233 10 c8 -5 11
-16 8 -25 -4 -10 -1 -16 8 -16 20 0 19 -16 -1 -24 -23 -9 -54 -7 -54 3 0 5 -9
7 -20 4 -23 -6 -25 -14 -7 -33 10 -12 9 -12 -5 -1 -24 18 -22 29 7 43 16 7 25
19 25 35 0 24 15 29 39 14z m-92 -43 c-3 -8 -6 -5 -6 6 -1 11 2 17 5 13 3 -3
4 -12 1 -19z m119 -53 c-11 -8 -25 -15 -30 -15 -6 1 0 7 14 15 32 19 40 18 16
0z"/>
<path d="M2724 1105 c-7 -17 4 -37 17 -30 12 8 12 45 -1 45 -6 0 -13 -7 -16
-15z"/>
<path d="M3250 1095 c0 -14 5 -25 10 -25 6 0 10 11 10 25 0 14 -4 25 -10 25
-5 0 -10 -11 -10 -25z"/>
<path d="M3370 1085 c-6 -8 -9 -23 -5 -35 8 -25 51 -27 64 -2 20 38 -31 71
-59 37z"/>
<path d="M2573 1054 c-8 -20 9 -49 28 -49 8 0 15 13 17 33 3 27 0 32 -18 32
-11 0 -23 -7 -27 -16z"/>
<path d="M2504 985 c-11 -27 4 -47 28 -40 38 12 45 25 24 41 -25 18 -45 18
-52 -1z"/>
<path d="M2578 988 c8 -9 10 -23 6 -29 -4 -8 -3 -9 5 -5 6 4 20 2 29 -5 14
-11 15 -11 5 1 -19 21 -15 35 5 18 9 -9 27 -19 40 -22 20 -7 22 -4 22 24 0 28
-3 32 -22 27 -13 -3 -34 -8 -47 -11 -14 -3 -32 0 -40 7 -14 10 -14 10 -3 -5z"/>
<path d="M2577 934 c-12 -12 -8 -52 6 -57 22 -8 39 8 35 34 -3 23 -27 37 -41
23z"/>
<path d="M3279 994 c-9 -11 -10 -20 -2 -32 15 -24 44 -27 59 -7 28 38 -27 75
-57 39z"/>
<path d="M3455 990 c-8 -27 12 -52 39 -48 16 2 21 10 21 33 0 25 -4 31 -27 33
-19 2 -28 -2 -33 -18z"/>
<path d="M3365 900 c-13 -41 43 -70 64 -33 13 25 -5 53 -34 53 -15 0 -26 -7
-30 -20z"/>
<path d="M2746 837 c-26 -19 -24 -67 4 -89 27 -22 39 -22 68 -2 26 18 30 65 6
88 -19 19 -54 21 -78 3z"/>
<path d="M3154 825 c-21 -31 -15 -53 19 -79 26 -19 30 -19 55 -5 54 30 32 109
-29 109 -19 0 -34 -8 -45 -25z"/>
<path d="M3002 830 c0 -14 2 -19 5 -12 2 6 2 18 0 25 -3 6 -5 1 -5 -13z"/>
<path d="M3008 793 c7 -3 16 -2 19 1 4 3 -2 6 -13 5 -11 0 -14 -3 -6 -6z"/>
<path d="M2795 1138 c-3 -13 -5 -61 -3 -108 l3 -85 203 -3 202 -2 0 110 0 110
-200 0 c-199 0 -200 0 -205 -22z"/>
</g>
</svg>
